<svg width="200" height="200" viewBox="0 0 200 200" fill="none" xmlns="http://www.w3.org/2000/svg">
<path d="M53.7952 71.92H64.6512L34.8432 153.156H23.9872L53.7952 71.92ZM84.971 71.92H95.827L66.019 153.156H55.163L84.971 71.92Z" fill="#FD4646"/>
<path d="M102.304 151.5L116.704 69.9H129.904C133.344 76.86 136.424 83.38 139.144 89.46C141.864 95.46 144.384 101.46 146.704 107.46C149.104 113.38 151.424 119.7 153.664 126.42L156.784 101.1L162.304 69.9H176.104L161.704 151.5H148.504C145.064 140.3 141.464 129.86 137.704 120.18C134.024 110.42 130.024 100.82 125.704 91.38L121.624 120.3L116.104 151.5H102.304Z" fill="#191919"/>
</svg>
